<svg width="36" height="42" viewBox="0 0 36 42" fill="none" xmlns="http://www.w3.org/2000/svg">
<g clip-path="url(#clip0_54_507)">
<path d="M14.1177 9.55696C13.6685 9.49194 13.6471 9.47027 13.861 9.4486C14.2674 9.38358 15.2086 9.47027 15.8717 9.62197C17.4118 9.99039 18.8022 10.944 20.2781 12.6127L20.6631 13.0678L21.2193 12.9811C23.5936 12.591 26.0321 12.8944 28.0642 13.848C28.6203 14.108 29.4973 14.6282 29.6043 14.7582C29.6471 14.8015 29.7112 15.0833 29.754 15.365C29.9038 16.3836 29.8396 17.1421 29.5187 17.7272C29.3476 18.0523 29.3476 18.139 29.4546 18.4207C29.5401 18.6375 29.7968 18.7892 30.0321 18.7892C30.5455 18.7892 31.0802 17.9656 31.3369 16.817L31.4439 16.3619L31.6364 16.5786C32.7273 17.8139 33.5829 19.526 33.7112 20.7396L33.754 21.0647L33.5615 20.783C33.2407 20.2845 32.9412 19.9594 32.5348 19.6777C31.8075 19.1792 31.0375 19.0275 29.0054 18.9192C27.1658 18.8108 26.1177 18.6591 25.0909 18.3124C23.3369 17.7272 22.4385 16.9687 20.3637 14.1731C19.4439 12.9378 18.8663 12.2659 18.2888 11.7025C17.0268 10.4672 15.7647 9.81702 14.1177 9.55696Z" fill="#FF007A"/>
<path d="M30.0535 12.3093C30.0963 11.4858 30.2032 10.944 30.4385 10.4456C30.5241 10.2505 30.6096 10.0771 30.631 10.0771C30.6524 10.0771 30.6096 10.2289 30.5455 10.4022C30.3744 10.879 30.353 11.5508 30.4599 12.3093C30.6096 13.2846 30.6738 13.4146 31.7006 14.4765C32.1711 14.975 32.7273 15.6035 32.9412 15.8635L33.3048 16.3403L32.9412 15.9936C32.492 15.5601 31.4653 14.7366 31.23 14.6282C31.0802 14.5415 31.0588 14.5415 30.9519 14.6499C30.8663 14.7366 30.8449 14.8666 30.8449 15.4951C30.8235 16.4703 30.6952 17.0771 30.3744 17.7056C30.2032 18.0307 30.1818 17.9657 30.3316 17.5973C30.4385 17.3155 30.4599 17.1855 30.4599 16.2536C30.4599 14.3682 30.246 13.9131 28.9412 13.1545C28.6203 12.9595 28.0642 12.6778 27.7433 12.5261C27.4011 12.3744 27.1444 12.2443 27.1658 12.2443C27.2086 12.201 28.4706 12.5694 28.9626 12.7861C29.7112 13.0895 29.8396 13.1112 29.9252 13.0895C29.9893 13.0245 30.0321 12.8511 30.0535 12.3093Z" fill="#FF007A"/>
<path d="M14.9948 15.5384C14.0964 14.2814 13.5189 12.3309 13.6472 10.8789L13.69 10.4238L13.9039 10.4672C14.2889 10.5322 14.952 10.7922 15.2729 10.9873C16.1285 11.5074 16.5135 12.2226 16.8771 13.9997C16.9841 14.5198 17.1338 15.1266 17.198 15.3217C17.305 15.6467 17.7114 16.4053 18.0536 16.882C18.2889 17.2288 18.1392 17.4022 17.6044 17.3588C16.7916 17.2721 15.7007 16.5136 14.9948 15.5384Z" fill="#FF007A"/>
<path d="M28.9626 24.9658C24.7273 23.2321 23.23 21.7367 23.23 19.2011C23.23 18.8327 23.2514 18.5293 23.2514 18.5293C23.2728 18.5293 23.4225 18.6593 23.615 18.811C24.4706 19.5045 25.4332 19.8079 28.107 20.198C29.6685 20.4364 30.5669 20.6098 31.3797 20.8915C33.9679 21.7584 35.5722 23.5355 35.9573 25.9411C36.0642 26.6346 36 27.9565 35.8289 28.65C35.6792 29.1918 35.2514 30.1887 35.1444 30.2104C35.123 30.2104 35.0802 30.1021 35.0802 29.9287C35.0375 29.0185 34.5883 28.1516 33.8396 27.4798C32.9412 26.6996 31.7861 26.1144 28.9626 24.9658Z" fill="#FF007A"/>
<path d="M25.9679 25.6816C25.9251 25.3565 25.8181 24.9447 25.754 24.7714L25.647 24.4463L25.8395 24.6847C26.1176 25.0098 26.3315 25.3998 26.524 25.9416C26.6738 26.3534 26.6738 26.4834 26.6738 27.1553C26.6738 27.8054 26.6524 27.9571 26.524 28.3255C26.3101 28.9107 26.0534 29.3224 25.6256 29.7776C24.8556 30.5794 23.8502 31.0129 22.4171 31.2079C22.1604 31.2296 21.4331 31.2946 20.7914 31.3379C19.1871 31.4246 18.1176 31.598 17.155 31.9447C17.0267 31.9881 16.8984 32.0314 16.877 32.0098C16.8342 31.9664 17.4973 31.5763 18.032 31.3163C18.7807 30.9478 19.5508 30.7528 21.2406 30.4494C22.0748 30.3194 22.9304 30.146 23.1443 30.0593C25.262 29.3875 26.3101 27.7187 25.9679 25.6816Z" fill="#FF007A"/>
<path d="M27.9143 29.1699C27.3582 27.9346 27.2298 26.7644 27.5293 25.6591C27.5721 25.5507 27.6149 25.4424 27.6576 25.4424C27.7004 25.4424 27.8288 25.5074 27.9571 25.5941C28.2138 25.7675 28.7485 26.0709 30.1175 26.8294C31.8501 27.7829 32.8341 28.5198 33.5186 29.365C34.1175 30.1018 34.4812 30.947 34.6523 31.9873C34.7592 32.5724 34.6951 33.9811 34.5453 34.5662C34.0747 36.4083 33.0052 37.882 31.4437 38.7272C31.2084 38.8572 31.0159 38.9439 30.9945 38.9439C30.9731 38.9439 31.0587 38.7272 31.187 38.4672C31.7004 37.3619 31.7646 36.3 31.3796 35.108C31.1443 34.3712 30.6523 33.4826 29.6683 31.9873C28.4919 30.2535 28.2138 29.7984 27.9143 29.1699Z" fill="#FF007A"/>
<path d="M11.9785 35.8019C13.5614 34.4582 15.5079 33.5047 17.3047 33.2013C18.0748 33.0712 19.3582 33.1146 20.0641 33.3096C21.1977 33.613 22.2245 34.2632 22.7592 35.0651C23.2726 35.8452 23.5079 36.5171 23.7432 38.0124C23.8288 38.5976 23.9357 39.2044 23.9571 39.3344C24.1282 40.1146 24.4705 40.7214 24.8983 41.0465C25.5614 41.5449 26.7165 41.5666 27.8502 41.1332C28.0427 41.0682 28.2138 41.0031 28.2138 41.0248C28.2566 41.0682 27.679 41.4582 27.294 41.6533C26.7592 41.935 26.3314 42.0217 25.7539 42.0217C24.7272 42.0217 23.8502 41.4799 23.1443 40.3963C22.9945 40.1796 22.6951 39.5511 22.4384 38.966C21.6897 37.2106 21.3047 36.6904 20.4277 36.1053C19.6576 35.6069 18.6737 35.4985 17.925 35.8669C16.9411 36.3437 16.6844 37.6223 17.3689 38.4025C17.6469 38.7276 18.1603 38.9877 18.5881 39.0527C19.3796 39.161 20.0641 38.5326 20.0641 37.7307C20.0641 37.2106 19.8715 36.9072 19.3582 36.6688C18.6737 36.3654 17.925 36.7121 17.9464 37.3839C17.9464 37.6657 18.0748 37.8391 18.3528 37.9691C18.5239 38.0558 18.5239 38.0558 18.3956 38.0341C17.7753 37.9041 17.6256 37.1239 18.1175 36.6254C18.7165 36.0186 19.9785 36.2787 20.4063 37.1239C20.5774 37.4706 20.5988 38.1641 20.4491 38.5976C20.0854 39.5511 19.0587 40.0496 18.0106 39.7678C17.3047 39.5728 17.0052 39.3778 16.1496 38.4892C14.6523 36.9288 14.0748 36.6254 11.9357 36.3004L11.5293 36.2353L11.9785 35.8019Z" fill="#FF007A"/>
<path fill-rule="evenodd" clip-rule="evenodd" d="M0.727248 0.931889C5.7112 7.06502 13.3903 16.6006 13.7754 17.1207C14.0962 17.5542 13.9679 17.9659 13.4331 18.2694C13.1337 18.4427 12.5133 18.6161 12.2139 18.6161C11.8716 18.6161 11.4652 18.4427 11.1871 18.161C10.9946 17.9659 10.1604 16.7306 8.27805 13.7616C6.84489 11.4861 5.62564 9.60062 5.60425 9.57895C5.51869 9.5356 5.51869 9.5356 8.12832 14.2601C9.77538 17.2291 10.3101 18.291 10.3101 18.4211C10.3101 18.7028 10.2246 18.8545 9.88233 19.2446C9.30479 19.8947 9.0481 20.6316 8.85559 22.1703C8.64169 23.8824 8.06415 25.096 6.41709 27.1548C5.45452 28.3684 5.30479 28.5851 5.06949 29.0836C4.77003 29.6904 4.68447 30.0372 4.64169 30.8173C4.59891 31.6409 4.68447 32.161 4.91976 32.9412C5.13366 33.6347 5.36896 34.0898 5.9465 34.9783C6.43848 35.7585 6.73794 36.3437 6.73794 36.5604C6.73794 36.7337 6.78072 36.7337 7.55078 36.5604C9.39035 36.1269 10.9091 35.3901 11.7433 34.4799C12.2567 33.9164 12.385 33.613 12.385 32.8328C12.385 32.3344 12.3636 32.226 12.2353 31.9226C12.0214 31.4458 11.6149 31.0557 10.7379 30.4489C9.58286 29.6471 9.09088 28.9969 8.96254 28.13C8.85559 27.3932 8.98393 26.8947 9.62564 25.5294C10.2887 24.1207 10.4599 23.5356 10.5668 22.1053C10.631 21.195 10.7379 20.8266 10.9946 20.5449C11.2727 20.2415 11.508 20.1331 12.1711 20.0464C13.262 19.8947 13.9679 19.613 14.524 19.0712C15.016 18.6161 15.2299 18.161 15.2513 17.4892L15.2727 16.9907L14.9946 16.6873C13.9893 15.517 0.064146 0 -2.51086e-05 0C-0.0214155 0 0.32083 0.411765 0.727248 0.931889ZM7.29409 31.7492C7.52939 31.3375 7.40104 30.8173 7.01602 30.5573C6.65238 30.3189 6.09623 30.4272 6.09623 30.7523C6.09623 30.839 6.13901 30.9257 6.26735 30.969C6.45987 31.0774 6.48126 31.1858 6.33153 31.4241C6.18179 31.6625 6.18179 31.8793 6.37431 32.031C6.67377 32.2694 7.08019 32.1393 7.29409 31.7492Z" fill="#FF007A"/>
<path fill-rule="evenodd" clip-rule="evenodd" d="M15.957 20.3499C15.4436 20.5016 14.9516 21.065 14.8019 21.6285C14.7163 21.9752 14.7591 22.6037 14.9089 22.7988C15.1442 23.1022 15.3581 23.1889 15.957 23.1889C17.1335 23.1889 18.1388 22.6687 18.2458 22.0403C18.3527 21.5201 17.9035 20.805 17.2832 20.4799C16.9623 20.3065 16.2992 20.2415 15.957 20.3499ZM17.326 21.4334C17.4971 21.1734 17.4329 20.8916 17.1121 20.6966C16.5345 20.3282 15.6575 20.6316 15.6575 21.1951C15.6575 21.4768 16.1067 21.7802 16.5345 21.7802C16.8126 21.7802 17.1976 21.6068 17.326 21.4334Z" fill="#FF007A"/>
</g>
<defs>
<clipPath id="clip0_54_507">
<rect width="36" height="42" fill="white"/>
</clipPath>
</defs>
</svg>
